<svg xmlns="http://www.w3.org/2000/svg" width="120" height="120" viewBox="0 0 120 120" shape-rendering="crispEdges">
  <!-- Isometric grass block -->
  <!-- Top face (grass) -->
  <g>
    <polygon points="60,16 104,40 60,64 16,40" fill="#7cbd56"/>
    <!-- top pixel speckles -->
    <polygon points="60,24 72,31 60,38 48,31" fill="#8fd368"/>
    <polygon points="40,36 52,43 40,50 28,43" fill="#6fae4c" opacity="0.8"/>
    <polygon points="80,36 92,43 80,50 68,43" fill="#6fae4c" opacity="0.8"/>
  </g>

  <!-- Left face -->
  <g>
    <polygon points="16,40 60,64 60,108 16,84" fill="#8a5a36"/>
    <!-- grass lip -->
    <polygon points="16,40 60,64 60,72 16,48" fill="#5fa33f"/>
    <!-- dirt pixels -->
    <polygon points="26,58 38,65 38,77 26,70" fill="#76492a" opacity="0.7"/>
    <polygon points="42,72 52,78 52,90 42,84" fill="#9d6b44" opacity="0.6"/>
  </g>

  <!-- Right face (shaded) -->
  <g>
    <polygon points="60,64 104,40 104,84 60,108" fill="#724a2c"/>
    <!-- grass lip -->
    <polygon points="60,64 104,40 104,48 60,72" fill="#4f8f3b"/>
    <!-- dirt pixels -->
    <polygon points="70,66 82,59 82,71 70,78" fill="#5e3c22" opacity="0.7"/>
    <polygon points="86,56 96,50 96,62 86,68" fill="#83562f" opacity="0.6"/>
  </g>
</svg>
